<?xml version="1.0" encoding="UTF-8"?>
<svg id="_레이어_1" data-name="레이어_1" xmlns="http://www.w3.org/2000/svg" version="1.1" viewBox="0 0 1366 768">
  <!-- Generator: Adobe Illustrator 29.3.1, SVG Export Plug-In . SVG Version: 2.1.0 Build 151)  -->
  <path d="M683,53.11c110.62,0,200.3,82.63,200.3,184.56s-89.68,184.56-200.3,184.56-200.3-82.63-200.3-184.56,89.68-184.56,200.3-184.56M683,34.63c-120.64,0-218.79,91.08-218.79,203.04s98.15,203.04,218.79,203.04,218.79-91.08,218.79-203.04-98.15-203.04-218.79-203.04h0Z"/>
  <g>
    <g>
      <path d="M578.26,475.7l20.63,72.71h-15.13l-3.74-13.85h-16.7l-3.54,13.85h-15.13l19.85-72.71h13.75ZM566.97,520.8h9.24l-4.62-23.78-4.62,23.78Z"/>
      <path d="M708.15,504.48h-15.33c-.39-11-2.85-16.01-9.83-16.01-7.96,0-12.18,8.15-12.18,23.58s4.22,23.58,12.18,23.58c6.19,0,9.34-4.52,9.83-15.43h15.33c0,18.18-10.71,29.58-26.33,29.58-16.8,0-26.33-13.46-26.33-37.73s9.53-37.73,26.33-37.73c15.52,0,26.33,10.51,26.33,30.16Z"/>
      <path d="M821.34,504.48h-15.33c-.39-11-2.85-16.01-9.83-16.01-7.96,0-12.18,8.15-12.18,23.58s4.22,23.58,12.18,23.58c6.19,0,9.34-4.52,9.83-15.43h15.33c0,18.18-10.71,29.58-26.33,29.58-16.8,0-26.33-13.46-26.33-37.73s9.53-37.73,26.33-37.73c15.52,0,26.33,10.51,26.33,30.16Z"/>
    </g>
    <g>
      <path d="M571.98,567.99v13.76h-18.67v13.75h18.67v13.76h-18.67v31.44h-14.93v-72.71h33.6Z"/>
      <path d="M594.52,567.99v49.91c0,6.68,2.36,10.12,9.04,10.12s9.04-3.05,9.04-10.12v-49.91h14.93v52.37c0,13.75-8.15,21.71-23.98,21.71s-23.97-7.96-23.97-21.71v-52.37h14.93Z"/>
      <path d="M673.28,567.99v13.76h-12.18v58.95h-14.93v-58.95h-12.18v-13.76h39.3Z"/>
      <path d="M694.56,567.99v49.91c0,6.68,2.36,10.12,9.04,10.12s9.04-3.05,9.04-10.12v-49.91h14.93v52.37c0,13.75-8.15,21.71-23.97,21.71s-23.97-7.96-23.97-21.71v-52.37h14.93Z"/>
      <path d="M757.6,567.99c9.14,0,16.02,2.16,19.75,6.49,3.14,3.64,5.8,9.14,5.8,16.8,0,9.43-4.32,17-10.71,20.44l13.76,28.99h-16.71l-16.01-36.94h2.26c8.15,0,12.09-4.52,12.09-11.2s-2.85-10.81-10.32-10.81h-4.23v58.95h-14.93v-72.71h19.26Z"/>
      <path d="M827.62,567.99v13.76h-20.44v13.95h20.44v13.75h-20.44v17.49h20.44v13.76h-35.37v-72.71h35.37Z"/>
    </g>
    <g>
      <path d="M482.91,679.64h-14.54c-.29-5.21-3.14-8.45-7.96-8.45s-7.57,3.54-7.57,7.96c0,5.21,3.93,7.27,12.09,9.92,12.58,4.13,19.36,10.52,19.36,23.29s-9.92,22.01-24.07,22.01c-16.61,0-23.88-8.94-23.88-24.27h14.93c.3,7.76,2.85,11.1,9.24,11.1,5.5,0,8.45-3.44,8.45-8.65,0-5.9-6.09-7.86-13.17-10.32-11.69-4.03-18.27-9.43-18.27-20.83,0-13.85,8.65-22.6,22.3-22.6s20.83,6.39,23.09,20.83Z"/>
      <path d="M513.69,660.29c13.95,0,23.38,8.94,23.38,23.68,0,15.62-10.02,23.68-24.37,23.68h-5.11v25.35h-14.93v-72.71h21.03ZM507.59,693.89h5.21c5.99,0,8.94-2.56,8.94-9.92,0-6.39-2.16-9.92-8.65-9.92h-5.5v19.85Z"/>
      <path d="M595.95,696.64c0,24.07-9.72,37.73-26.72,37.73s-26.73-13.76-26.73-37.83,9.63-37.63,26.73-37.63,26.72,13.66,26.72,37.73ZM569.23,720.62c8.15,0,11.4-7.56,11.4-23.97s-3.24-23.97-11.49-23.97-11.3,7.86-11.3,23.97,3.24,23.97,11.4,23.97Z"/>
      <path d="M623.47,660.29c9.14,0,16.02,2.16,19.75,6.49,3.14,3.64,5.8,9.14,5.8,16.8,0,9.43-4.32,17-10.71,20.44l13.76,28.99h-16.7l-16.02-36.94h2.26c8.15,0,12.09-4.52,12.09-11.2s-2.85-10.81-10.32-10.81h-4.22v58.95h-14.93v-72.71h19.25Z"/>
      <path d="M693.01,660.29v13.76h-12.18v58.95h-14.93v-58.95h-12.18v-13.76h39.3Z"/>
      <path d="M743.73,679.64h-14.54c-.3-5.21-3.14-8.45-7.96-8.45s-7.57,3.54-7.57,7.96c0,5.21,3.93,7.27,12.09,9.92,12.58,4.13,19.36,10.52,19.36,23.29s-9.92,22.01-24.07,22.01c-16.61,0-23.88-8.94-23.88-24.27h14.93c.3,7.76,2.85,11.1,9.23,11.1,5.5,0,8.45-3.44,8.45-8.65,0-5.9-6.09-7.86-13.17-10.32-11.69-4.03-18.28-9.43-18.28-20.83,0-13.85,8.65-22.6,22.31-22.6s20.83,6.39,23.09,20.83Z"/>
      <path d="M802.28,660.29c18.97,0,29.18,15.23,29.18,36.45s-11.69,36.26-28.79,36.26h-21.81v-72.71h21.42ZM802.58,719.24c8.35,0,13.56-8.25,13.56-22.7s-4.52-22.5-13.95-22.5h-6.39v45.2h6.78Z"/>
      <path d="M865.44,660.29l20.63,72.71h-15.13l-3.74-13.85h-16.7l-3.54,13.85h-15.13l19.85-72.71h13.75ZM854.14,705.39h9.24l-4.62-23.78-4.62,23.78Z"/>
      <path d="M895.08,660.29l9.73,29.67,9.53-29.67h15.33l-17.49,43.62v29.08h-14.93v-29.08l-17.49-43.62h15.33Z"/>
    </g>
  </g>
  <g>
    <path d="M738.22,104.64c-2.78-6.48-10.41-3.68-15.52-4.29-7.37-.41-14.59.91-21.72-.91-4-1.41-4.63-5.97-4.68-10.56-.3-6.6,1.81-16.8-5.87-18.48-5.27-.67-11.59-.92-16.77.74-7.87,3.67-.57,20.2-6.34,26.85-2,1.97-4.98,2.21-7.53,2.31-8.58.45-18.92-.74-27.72.58-3.7.8-5.1,4.86-5.21,9.01-.58,9.26.99,15.28,9.68,14.79,6.82.87,19.06-3.34,20.51,6.95,1.22,22.58-.86,48.11.84,70.56,1.13,4.39,5.14,5.27,8.85,5.41,4.64.15,10.37-.26,11.53-5.75,1.13-10.39.11-21.12.51-31.73-.38-4.71,2.57-10.36,6.77-6.45.89,1.03,1.3,2.5,1.5,3.94,1.16,9.97-.72,23.46.71,34.2,1.59,7.27,11.75,6.48,16.93,4.69,3.91-1.62,4.08-6.78,4.01-10.83,0-18.72,0-40.73.02-59.51-.03-3.94.4-9.02,4.12-10.48,14.55-4.21,30.68,7.43,25.58-20.57l-.17-.46Z"/>
    <path d="M738.22,302.38c-2.78-6.48-10.41-3.68-15.52-4.29-7.37-.41-14.59.91-21.72-.91-4-1.41-4.63-5.97-4.68-10.56-.3-6.6,1.81-16.8-5.87-18.48-5.27-.67-11.59-.92-16.77.74-7.87,3.67-.57,20.2-6.34,26.85-2,1.97-4.98,2.21-7.53,2.31-8.58.45-18.92-.74-27.72.58-3.7.8-5.1,4.86-5.21,9.01-.58,9.26.99,15.28,9.68,14.79,6.82.87,19.06-3.34,20.51,6.95,1.22,22.58-.86,48.11.84,70.56,1.13,4.39,5.14,5.27,8.85,5.41,4.64.15,10.37-.26,11.53-5.75,1.13-10.39.11-21.12.51-31.73-.38-4.71,2.57-10.36,6.77-6.45.89,1.03,1.3,2.5,1.5,3.94,1.16,9.97-.72,23.46.71,34.2,1.59,7.27,11.75,6.48,16.93,4.69,3.91-1.62,4.08-6.78,4.01-10.83,0-18.72,0-40.73.02-59.51-.03-3.94.4-9.02,4.12-10.48,14.55-4.21,30.68,7.43,25.58-20.57l-.17-.46Z"/>
    <path d="M620.77,106.96c-2.15-4.75-7.23-2.58-10.36-.33-5.69,3.83-11.62,7.77-16.83,11.25-3.46,2.11-7.77,6.03-11.84,3.75-5.08-3.48-.42-15.56-6.02-19.25-5.89-1.77-11.08,4.79-16.48,7.64-11.85,6.18-4.26,22.79-8.05,33.73-1.38,3.35-4.51,5.37-7.19,7.24-8.42,5.65-16.82,11.26-26.8,17.92-6.75,3.51-8.68,9.73-7.54,18.37.4,3.53,1.97,6.46,4.66,6.51,7.94-.14,14.41-12.09,22.54-9.64,3.32,2.07,2.99,7.5,3.1,11.28-.03,7.24-.01,15.17-.02,21.35,0,10.05,0,23.41.02,32.13-.39,6.81,3.65,11.08,9.53,7.38,5.39-3.33,11.79-6.46,11.81-14.35.48-11.64-.59-26.67.35-36.71.27-2.11,1.37-4.31,3.34-4.69,4.5-.6,5.01,5.51,4.94,9.58.1,6.43-.19,14.5.16,20.67.56,7.63,4.91,8.25,10.21,5.01,6.55-3.78,11.91-7.83,11.02-16.37.03-11.02,0-22.56.02-33.3.02-10.68-.02-20.79,0-31.31.05-3.21-.03-6.95,1.3-9.73.88-1.84,2.44-3.18,3.98-4.35,7.32-5.68,16.61-9.91,22.96-16.39,2.8-4.17,2.88-11.64,1.4-16.93l-.19-.44Z"/>
    <path d="M510.47,230.86c2.15-4.75,7.23-2.58,10.36-.33,5.69,3.83,11.62,7.77,16.83,11.25,3.46,2.11,7.77,6.03,11.84,3.75,5.08-3.48.42-15.56,6.02-19.25,5.89-1.77,11.08,4.79,16.48,7.64,11.85,6.18,4.26,22.79,8.05,33.73,1.38,3.35,4.51,5.37,7.19,7.24,8.42,5.65,16.82,11.26,26.8,17.92,6.75,3.51,8.68,9.73,7.54,18.37-.4,3.53-1.97,6.46-4.66,6.51-7.94-.14-14.41-12.09-22.54-9.64-3.32,2.07-2.99,7.5-3.1,11.28.03,7.24.01,15.17.02,21.35,0,10.05,0,23.41-.02,32.13.39,6.81-3.65,11.08-9.53,7.38-5.39-3.33-11.79-6.46-11.81-14.35-.48-11.64.59-26.67-.35-36.71-.27-2.11-1.37-4.31-3.34-4.69-4.5-.6-5.01,5.51-4.94,9.58-.1,6.43.19,14.5-.16,20.67-.56,7.63-4.91,8.25-10.21,5.01-6.55-3.78-11.91-7.83-11.02-16.37-.03-11.02,0-22.56-.02-33.3-.02-10.68.02-20.79,0-31.31-.05-3.21.03-6.95-1.3-9.73-.88-1.84-2.44-3.18-3.98-4.35-7.32-5.68-16.61-9.91-22.96-16.39-2.8-4.17-2.88-11.64-1.4-16.93l.19-.44Z"/>
    <path d="M745.23,106.96c2.15-4.75,7.23-2.58,10.36-.33,5.69,3.83,11.62,7.77,16.83,11.25,3.46,2.11,7.77,6.03,11.84,3.75,5.08-3.48.42-15.56,6.02-19.25,5.89-1.77,11.08,4.79,16.48,7.64,11.85,6.18,4.26,22.79,8.05,33.73,1.38,3.35,4.51,5.37,7.19,7.24,8.42,5.65,16.82,11.26,26.8,17.92,6.75,3.51,8.68,9.73,7.54,18.37-.4,3.53-1.97,6.46-4.66,6.51-7.94-.14-14.41-12.09-22.54-9.64-3.32,2.07-2.99,7.5-3.1,11.28.03,7.24.01,15.17.02,21.35,0,10.05,0,23.41-.02,32.13.39,6.81-3.65,11.08-9.53,7.38-5.39-3.33-11.79-6.46-11.81-14.35-.48-11.64.59-26.67-.35-36.71-.27-2.11-1.37-4.31-3.34-4.69-4.5-.6-5.01,5.51-4.94,9.58-.1,6.43.19,14.5-.16,20.67-.56,7.63-4.91,8.25-10.21,5.01-6.55-3.78-11.91-7.83-11.02-16.37-.03-11.02,0-22.56-.02-33.3-.02-10.68.02-20.79,0-31.31-.05-3.21.03-6.95-1.3-9.73-.88-1.84-2.44-3.18-3.98-4.35-7.32-5.68-16.61-9.91-22.96-16.39-2.8-4.17-2.88-11.64-1.4-16.93l.19-.44Z"/>
    <path d="M855.53,230.86c-2.15-4.75-7.23-2.58-10.36-.33-5.69,3.83-11.62,7.77-16.83,11.25-3.46,2.11-7.77,6.03-11.84,3.75-5.08-3.48-.42-15.56-6.02-19.25-5.89-1.77-11.08,4.79-16.48,7.64-11.85,6.18-4.26,22.79-8.05,33.73-1.38,3.35-4.51,5.37-7.19,7.24-8.42,5.65-16.82,11.26-26.8,17.92-6.75,3.51-8.68,9.73-7.54,18.37.4,3.53,1.97,6.46,4.66,6.51,7.94-.14,14.41-12.09,22.54-9.64,3.32,2.07,2.99,7.5,3.1,11.28-.03,7.24-.01,15.17-.02,21.35,0,10.05,0,23.41.02,32.13-.39,6.81,3.65,11.08,9.53,7.38,5.39-3.33,11.79-6.46,11.81-14.35.48-11.64-.59-26.67.35-36.71.27-2.11,1.37-4.31,3.34-4.69,4.5-.6,5.01,5.51,4.94,9.58.1,6.43-.19,14.5.16,20.67.56,7.63,4.91,8.25,10.21,5.01,6.55-3.78,11.91-7.83,11.02-16.37.03-11.02,0-22.56.02-33.3.02-10.68-.02-20.79,0-31.31.05-3.21-.03-6.95,1.3-9.73.88-1.84,2.44-3.18,3.98-4.35,7.32-5.68,16.61-9.91,22.96-16.39,2.8-4.17,2.88-11.64,1.4-16.93l-.19-.44Z"/>
  </g>
</svg>